<mxfile host="Electron" modified="2025-06-16T13:01:12.181Z" agent="Mozilla/5.0 (Windows NT 10.0; Win64; x64) AppleWebKit/537.36 (KHTML, like Gecko) draw.io/24.5.3 Chrome/124.0.6367.207 Electron/30.0.6 Safari/537.36" etag="gNnCMuCz3zgBo5jS8J1_" version="24.5.3" type="device">
  <diagram name="Page-1" id="PLRIzc8Z-4Aq02USeluu">
    <mxGraphModel dx="778" dy="540" grid="1" gridSize="10" guides="1" tooltips="1" connect="1" arrows="1" fold="1" page="1" pageScale="1" pageWidth="850" pageHeight="1100" math="0" shadow="0">
      <root>
        <mxCell id="0" />
        <mxCell id="1" parent="0" />
        <mxCell id="aKtxnqK0HoKgMNVSYpRM-1" value="A lépés lehet, hogy tovább tart" style="rounded=1;whiteSpace=wrap;html=1;dashed=1;dashPattern=12 12;" vertex="1" parent="1">
          <mxGeometry x="135" y="200" width="120" height="60" as="geometry" />
        </mxCell>
        <mxCell id="aKtxnqK0HoKgMNVSYpRM-2" value="páciens1 befekszik a kamerába" style="rounded=1;whiteSpace=wrap;html=1;" vertex="1" parent="1">
          <mxGeometry x="50" y="570" width="120" height="60" as="geometry" />
        </mxCell>
        <mxCell id="aKtxnqK0HoKgMNVSYpRM-3" value="" style="endArrow=none;html=1;rounded=0;entryX=1;entryY=0;entryDx=0;entryDy=0;" edge="1" parent="1" target="aKtxnqK0HoKgMNVSYpRM-2">
          <mxGeometry width="50" height="50" relative="1" as="geometry">
            <mxPoint x="170" y="780" as="sourcePoint" />
            <mxPoint x="440" y="740" as="targetPoint" />
          </mxGeometry>
        </mxCell>
        <mxCell id="aKtxnqK0HoKgMNVSYpRM-4" value="&lt;div&gt;operátor elindítja a&amp;nbsp;SPECT&amp;nbsp; gyűjtést&amp;nbsp;&lt;/div&gt;" style="rounded=1;whiteSpace=wrap;html=1;" vertex="1" parent="1">
          <mxGeometry x="170" y="630" width="230" height="100" as="geometry" />
        </mxCell>
        <mxCell id="aKtxnqK0HoKgMNVSYpRM-5" value="&lt;div&gt;operátor előkészíti a páciens2-t (adattok felvétele)&lt;/div&gt;" style="rounded=1;whiteSpace=wrap;html=1;" vertex="1" parent="1">
          <mxGeometry x="220" y="760" width="180" height="60" as="geometry" />
        </mxCell>
        <mxCell id="aKtxnqK0HoKgMNVSYpRM-6" value="" style="endArrow=none;html=1;rounded=0;entryX=1;entryY=0;entryDx=0;entryDy=0;" edge="1" parent="1">
          <mxGeometry width="50" height="50" relative="1" as="geometry">
            <mxPoint x="400" y="1240" as="sourcePoint" />
            <mxPoint x="400" y="630" as="targetPoint" />
          </mxGeometry>
        </mxCell>
        <mxCell id="aKtxnqK0HoKgMNVSYpRM-7" value="Kérdés" style="rhombus;whiteSpace=wrap;html=1;" vertex="1" parent="1">
          <mxGeometry x="30" y="110" width="80" height="80" as="geometry" />
        </mxCell>
        <mxCell id="aKtxnqK0HoKgMNVSYpRM-8" value="Lépés" style="rounded=1;whiteSpace=wrap;html=1;" vertex="1" parent="1">
          <mxGeometry x="20" y="200" width="120" height="60" as="geometry" />
        </mxCell>
        <mxCell id="aKtxnqK0HoKgMNVSYpRM-9" value="" style="endArrow=none;html=1;rounded=0;entryX=1;entryY=0;entryDx=0;entryDy=0;" edge="1" parent="1" target="aKtxnqK0HoKgMNVSYpRM-8">
          <mxGeometry width="50" height="50" relative="1" as="geometry">
            <mxPoint x="140" y="380" as="sourcePoint" />
            <mxPoint x="140" y="310" as="targetPoint" />
          </mxGeometry>
        </mxCell>
        <mxCell id="aKtxnqK0HoKgMNVSYpRM-10" value="Ez jelöli, hogy ezen lépés&amp;nbsp;&lt;div&gt;vége triggereli a kövi lépést&lt;/div&gt;" style="edgeLabel;html=1;align=center;verticalAlign=middle;resizable=0;points=[];" vertex="1" connectable="0" parent="aKtxnqK0HoKgMNVSYpRM-9">
          <mxGeometry y="-3" relative="1" as="geometry">
            <mxPoint x="-3" y="20" as="offset" />
          </mxGeometry>
        </mxCell>
        <mxCell id="aKtxnqK0HoKgMNVSYpRM-11" value="" style="endArrow=none;html=1;rounded=0;dashed=1;dashPattern=12 12;" edge="1" parent="1">
          <mxGeometry width="50" height="50" relative="1" as="geometry">
            <mxPoint x="260" y="500" as="sourcePoint" />
            <mxPoint x="255" y="200" as="targetPoint" />
          </mxGeometry>
        </mxCell>
        <mxCell id="aKtxnqK0HoKgMNVSYpRM-12" value="Ez jelöli, ugyanaz,&amp;nbsp;&lt;div&gt;mint a teli vonal,&amp;nbsp;&lt;div&gt;csak a szaggatott&amp;nbsp;&lt;/div&gt;&lt;div&gt;dobozokhoz tartozóan.&amp;nbsp;&lt;/div&gt;&lt;div&gt;&lt;br&gt;&lt;/div&gt;&lt;div&gt;A &quot;lehet, hogy tovább&amp;nbsp;&lt;/div&gt;&lt;div&gt;tart&quot; lépés vége,&amp;nbsp;&lt;/div&gt;&lt;div&gt;ami triggeli a kövi lépést&lt;/div&gt;&lt;/div&gt;" style="edgeLabel;html=1;align=center;verticalAlign=middle;resizable=0;points=[];" vertex="1" connectable="0" parent="aKtxnqK0HoKgMNVSYpRM-11">
          <mxGeometry y="-3" relative="1" as="geometry">
            <mxPoint x="-5" y="70" as="offset" />
          </mxGeometry>
        </mxCell>
        <mxCell id="aKtxnqK0HoKgMNVSYpRM-13" value="Páciens1 távozik" style="rounded=1;whiteSpace=wrap;html=1;" vertex="1" parent="1">
          <mxGeometry x="820" y="1428" width="190" height="60" as="geometry" />
        </mxCell>
        <mxCell id="aKtxnqK0HoKgMNVSYpRM-14" value="NonAC SPECT Rekon&amp;nbsp;" style="rounded=1;whiteSpace=wrap;html=1;" vertex="1" parent="1">
          <mxGeometry x="400" y="994" width="100" height="60" as="geometry" />
        </mxCell>
        <mxCell id="aKtxnqK0HoKgMNVSYpRM-15" value="" style="endArrow=none;html=1;rounded=0;entryX=1;entryY=0;entryDx=0;entryDy=0;" edge="1" parent="1">
          <mxGeometry width="50" height="50" relative="1" as="geometry">
            <mxPoint x="820" y="1498" as="sourcePoint" />
            <mxPoint x="820" y="1128" as="targetPoint" />
          </mxGeometry>
        </mxCell>
        <mxCell id="aKtxnqK0HoKgMNVSYpRM-16" value="Rekon vége, operátor betölti a reknsturált képeket, fúzionálja, stb: Ideális esetben a távozás előtt legyenek meg a rekon felvételek (3 percen belül, akár MPH-ra is) ellenőrzés céljából" style="rounded=1;whiteSpace=wrap;html=1;" vertex="1" parent="1">
          <mxGeometry x="820" y="1188" width="220" height="110" as="geometry" />
        </mxCell>
        <mxCell id="aKtxnqK0HoKgMNVSYpRM-17" value="" style="endArrow=none;html=1;rounded=0;entryX=1;entryY=0;entryDx=0;entryDy=0;" edge="1" parent="1">
          <mxGeometry width="50" height="50" relative="1" as="geometry">
            <mxPoint x="1040" y="1408" as="sourcePoint" />
            <mxPoint x="1040" y="1188" as="targetPoint" />
          </mxGeometry>
        </mxCell>
        <mxCell id="aKtxnqK0HoKgMNVSYpRM-18" value="&lt;div&gt;Páciens 2 befekszik a kamerába&lt;/div&gt;" style="rounded=1;whiteSpace=wrap;html=1;" vertex="1" parent="1">
          <mxGeometry x="1040" y="1288" width="120" height="60" as="geometry" />
        </mxCell>
        <mxCell id="aKtxnqK0HoKgMNVSYpRM-19" value="output: SPECT_RAW" style="text;html=1;align=center;verticalAlign=middle;resizable=0;points=[];autosize=1;strokeColor=none;fillColor=none;" vertex="1" parent="1">
          <mxGeometry x="280" y="600" width="140" height="30" as="geometry" />
        </mxCell>
        <mxCell id="aKtxnqK0HoKgMNVSYpRM-20" value="&lt;div&gt;&lt;div&gt;input: SPECT_RAW&lt;/div&gt;&lt;div&gt;output: SPECT_RECON_NAC&lt;/div&gt;&lt;/div&gt;" style="text;html=1;align=center;verticalAlign=middle;resizable=0;points=[];autosize=1;strokeColor=none;fillColor=none;" vertex="1" parent="1">
          <mxGeometry x="355" y="1054" width="190" height="40" as="geometry" />
        </mxCell>
        <mxCell id="aKtxnqK0HoKgMNVSYpRM-21" value="CT gyűjtés" style="rounded=1;whiteSpace=wrap;html=1;" vertex="1" parent="1">
          <mxGeometry x="400" y="862" width="100" height="66" as="geometry" />
        </mxCell>
        <mxCell id="aKtxnqK0HoKgMNVSYpRM-22" value="&lt;div&gt;output: CT_RAW&lt;/div&gt;" style="text;html=1;align=center;verticalAlign=middle;resizable=0;points=[];autosize=1;strokeColor=none;fillColor=none;" vertex="1" parent="1">
          <mxGeometry x="395" y="926" width="110" height="30" as="geometry" />
        </mxCell>
        <mxCell id="aKtxnqK0HoKgMNVSYpRM-23" value="" style="endArrow=none;html=1;rounded=0;entryX=1;entryY=0;entryDx=0;entryDy=0;" edge="1" parent="1">
          <mxGeometry width="50" height="50" relative="1" as="geometry">
            <mxPoint x="500" y="1135" as="sourcePoint" />
            <mxPoint x="500" y="862" as="targetPoint" />
          </mxGeometry>
        </mxCell>
        <mxCell id="aKtxnqK0HoKgMNVSYpRM-24" value="CT rekon" style="rounded=1;whiteSpace=wrap;html=1;" vertex="1" parent="1">
          <mxGeometry x="500" y="928" width="140" height="66" as="geometry" />
        </mxCell>
        <mxCell id="aKtxnqK0HoKgMNVSYpRM-25" value="&lt;div&gt;input: CT_RAW&lt;/div&gt;&lt;div&gt;outut: CT_RECON&lt;/div&gt;" style="text;html=1;align=center;verticalAlign=middle;resizable=0;points=[];autosize=1;strokeColor=none;fillColor=none;" vertex="1" parent="1">
          <mxGeometry x="500" y="994" width="120" height="40" as="geometry" />
        </mxCell>
        <mxCell id="aKtxnqK0HoKgMNVSYpRM-26" value="" style="endArrow=none;html=1;rounded=0;entryX=1;entryY=0;entryDx=0;entryDy=0;" edge="1" parent="1">
          <mxGeometry width="50" height="50" relative="1" as="geometry">
            <mxPoint x="640" y="1228" as="sourcePoint" />
            <mxPoint x="640" y="926" as="targetPoint" />
          </mxGeometry>
        </mxCell>
        <mxCell id="aKtxnqK0HoKgMNVSYpRM-27" value="&lt;div&gt;Clari postfilter&lt;/div&gt;" style="rounded=1;whiteSpace=wrap;html=1;" vertex="1" parent="1">
          <mxGeometry x="640" y="1128" width="180" height="60" as="geometry" />
        </mxCell>
        <mxCell id="aKtxnqK0HoKgMNVSYpRM-28" value="&lt;div&gt;Input: CT_RECON&lt;/div&gt;&lt;div&gt;Output: CT_RECON_POSTCLARI&lt;/div&gt;" style="text;html=1;align=center;verticalAlign=middle;resizable=0;points=[];autosize=1;strokeColor=none;fillColor=none;" vertex="1" parent="1">
          <mxGeometry x="600" y="1192" width="210" height="40" as="geometry" />
        </mxCell>
        <mxCell id="aKtxnqK0HoKgMNVSYpRM-29" value="AC SPECT rekon" style="rounded=1;whiteSpace=wrap;html=1;" vertex="1" parent="1">
          <mxGeometry x="640" y="994" width="120" height="60" as="geometry" />
        </mxCell>
        <mxCell id="aKtxnqK0HoKgMNVSYpRM-30" value="&lt;div&gt;Input: SPECT_RAW, CT_RECON&lt;/div&gt;&lt;div&gt;Output: SPECT_RECON_AC&lt;/div&gt;&lt;div&gt;Megjegyzés: prioritást élvezzen a CT_RECON_POSTCLARI-val szemben&lt;/div&gt;" style="text;html=1;align=center;verticalAlign=middle;resizable=0;points=[];autosize=1;strokeColor=none;fillColor=none;" vertex="1" parent="1">
          <mxGeometry x="505" y="1054" width="420" height="60" as="geometry" />
        </mxCell>
        <mxCell id="aKtxnqK0HoKgMNVSYpRM-31" value="Forrás:&amp;nbsp;&amp;nbsp;&lt;a href=&quot;https://confluence.mediso.com/pages/viewpage.action?pageId=334987753&quot;&gt;InterView WorkFlow Server Intended Use - InterView Products - Confluence&lt;/a&gt;&lt;div&gt;&lt;div&gt;UC1: SPECT/CT berenezésnél rutin 2 operator&lt;/div&gt;&lt;/div&gt;" style="text;html=1;align=center;verticalAlign=middle;resizable=0;points=[];autosize=1;strokeColor=none;fillColor=none;" vertex="1" parent="1">
          <mxGeometry x="245" y="13" width="470" height="40" as="geometry" />
        </mxCell>
        <mxCell id="aKtxnqK0HoKgMNVSYpRM-32" value="" style="endArrow=none;html=1;rounded=0;" edge="1" parent="1">
          <mxGeometry width="50" height="50" relative="1" as="geometry">
            <mxPoint x="219" y="870" as="sourcePoint" />
            <mxPoint x="218.57" y="730" as="targetPoint" />
          </mxGeometry>
        </mxCell>
        <mxCell id="aKtxnqK0HoKgMNVSYpRM-33" value="2 operátor esetén a Páciens 2 előbb befekhet a kamerába" style="ellipse;whiteSpace=wrap;html=1;" vertex="1" parent="1">
          <mxGeometry x="1040" y="1378" width="120" height="80" as="geometry" />
        </mxCell>
        <mxCell id="aKtxnqK0HoKgMNVSYpRM-34" value="2 operátor esetén a a 2. páciens előkészítés kezdődhet előbb, majdnem egy időben a SPECT gyűjtés indítással&lt;div&gt;&lt;br&gt;&lt;/div&gt;&lt;div&gt;Dinamikus planár gyűjtés esetén pedálos indításnál ez a lépés ez a lépés futhat párhuzamosan az előzővel&lt;/div&gt;" style="ellipse;whiteSpace=wrap;html=1;" vertex="1" parent="1">
          <mxGeometry x="90" y="820" width="120" height="80" as="geometry" />
        </mxCell>
        <mxCell id="aKtxnqK0HoKgMNVSYpRM-35" style="edgeStyle=orthogonalEdgeStyle;rounded=0;orthogonalLoop=1;jettySize=auto;html=1;exitX=0.5;exitY=0;exitDx=0;exitDy=0;entryX=0;entryY=0.5;entryDx=0;entryDy=0;" edge="1" parent="1" source="aKtxnqK0HoKgMNVSYpRM-37" target="aKtxnqK0HoKgMNVSYpRM-21">
          <mxGeometry relative="1" as="geometry" />
        </mxCell>
        <mxCell id="aKtxnqK0HoKgMNVSYpRM-36" style="edgeStyle=orthogonalEdgeStyle;rounded=0;orthogonalLoop=1;jettySize=auto;html=1;exitX=0.5;exitY=1;exitDx=0;exitDy=0;entryX=0;entryY=0.5;entryDx=0;entryDy=0;" edge="1" parent="1" source="aKtxnqK0HoKgMNVSYpRM-37" target="aKtxnqK0HoKgMNVSYpRM-14">
          <mxGeometry relative="1" as="geometry" />
        </mxCell>
        <mxCell id="aKtxnqK0HoKgMNVSYpRM-37" value="Ezek közül egyszerre csak az egyik futhat.&lt;div&gt;&lt;br&gt;&lt;/div&gt;" style="ellipse;whiteSpace=wrap;html=1;" vertex="1" parent="1">
          <mxGeometry x="310" y="938" width="80" height="60" as="geometry" />
        </mxCell>
        <mxCell id="aKtxnqK0HoKgMNVSYpRM-38" value="Info, magyarázat" style="ellipse;whiteSpace=wrap;html=1;" vertex="1" parent="1">
          <mxGeometry x="135" y="115" width="110" height="70" as="geometry" />
        </mxCell>
      </root>
    </mxGraphModel>
  </diagram>
</mxfile>
